# xmcd
#
# Track frame offsets:
# 150
# 18517
# 38930
# 61189
# 75337
# 94566
# 117912
# 135703
# 152946
# 176907
#
# Disc length: 2558 seconds
#
# Revision: 0
# Processed by: cddbd v1.5.1PL0 Copyright (c) Steve Scherf et al.
# Submitted via: Audion 3.0.2 (http://www.panic.com/audion/)
#
DISCID=7a09fc0a
DTITLE=Pasion Vega - Grandes Exitos
DYEAR=1900
DGENRE=
TTITLE0=El dia que naci yo
TTITLE1=En mi voz
TTITLE2=El dia que me quieras
TTITLE3=Con el alma en los labios
TTITLE4=No habra segunda parte
TTITLE5=Ojos verdes
TTITLE6=Tientos del remordimiento
TTITLE7=Vamos a dejarnos
TTITLE8=Tatuaje
TTITLE9=Nana para un rey
EXTD=
EXTT0=
EXTT1=
EXTT2=
EXTT3=
EXTT4=
EXTT5=
EXTT6=
EXTT7=
EXTT8=
EXTT9=
PLAYORDER=
